<?xml version="1.0" encoding="UTF-8" standalone="no"?>
<svg width="100%" height="100%" viewBox="0 0 1024 1024" version="1.1" xmlns="http://www.w3.org/2000/svg" xml:space="preserve" style="fill-rule:evenodd;clip-rule:evenodd;stroke-linejoin:round;stroke-miterlimit:2;">
    <rect x="0" y="0" width="1024" height="1024" style="fill:url(#_Linear1);fill-rule:nonzero;"/>
    <path d="M592.842,207.413L560.995,207.413L560.995,335.617L768.408,335.617L768.408,415.643L560.995,415.643L560.995,726.226L560.99,726.226C601.788,739.741 631.222,778.196 631.222,823.528C631.222,880.127 585.339,926.01 528.74,926.01C472.141,926.01 426.258,880.127 426.258,823.528C426.258,778.196 455.692,739.741 496.49,726.226L496.485,726.226L496.485,512L320.102,512L320.102,559.362L176.383,559.362L176.383,399.311L320.102,399.311L320.102,447.49L496.485,447.49L496.485,207.413L464.638,207.413L464.638,111.056L592.842,111.056L592.842,207.413Z" style="fill-rule:nonzero;"/>
    <path d="M927.643,376.038C927.643,415.5 895.653,447.49 856.191,447.49C816.73,447.49 784.74,415.5 784.74,376.038C784.74,336.577 816.73,304.587 856.191,304.587C895.653,304.587 927.643,336.577 927.643,376.038Z" style="fill-rule:nonzero;"/>
    <path d="M576.51,191.898L544.663,191.898L544.663,320.102L752.077,320.102L752.077,400.128L544.663,400.128L544.663,710.711L544.659,710.711C585.457,724.226 614.89,762.681 614.89,808.013C614.89,864.612 569.007,910.494 512.408,910.494C455.809,910.494 409.927,864.612 409.927,808.013C409.927,762.681 439.36,724.226 480.158,710.711L480.153,710.711L480.153,496.485L303.77,496.485L303.77,543.847L160.051,543.847L160.051,383.796L303.77,383.796L303.77,431.974L480.153,431.974L480.153,191.898L448.306,191.898L448.306,95.5407L576.51,95.5407L576.51,191.898Z" style="fill:white;fill-rule:nonzero;"/>
    <path d="M911.311,360.523C911.311,399.985 879.321,431.974 839.86,431.974C800.398,431.974 768.408,399.985 768.408,360.523C768.408,321.062 800.398,289.072 839.86,289.072C879.321,289.072 911.311,321.062 911.311,360.523Z" style="fill:white;fill-rule:nonzero;"/>
    <defs>
        <linearGradient id="_Linear1" x1="0" y1="0" x2="1" y2="0" gradientUnits="userSpaceOnUse" gradientTransform="matrix(0,1024,-1024,0,512,0)"><stop offset="0" style="stop-color:rgb(36,140,255);stop-opacity:1"/><stop offset="1" style="stop-color:rgb(10,75,190);stop-opacity:1"/></linearGradient>
    </defs>
</svg>
